<?xml version="1.0" encoding="utf-8"?>
<!-- Generator: Adobe Illustrator 25.0.0, SVG Export Plug-In . SVG Version: 6.00 Build 0)  -->
<svg version="1.1" id="Layer_1" xmlns="http://www.w3.org/2000/svg" xmlns:xlink="http://www.w3.org/1999/xlink" x="0px" y="0px"
	 viewBox="0 0 1080 1080" style="enable-background:new 0 0 1080 1080;" xml:space="preserve">
<style type="text/css">
	.st0{fill:#231F20;stroke:#FFFFFF;stroke-width:0.2558;stroke-miterlimit:10;}
	.st1{fill:#005AFF;}
	.st2{fill:#A3A3A3;}
</style>
<path class="st0" d="M91.24,318.72l-21.53-7.6l-19.64,44.21l-16.08-5.68l27.64-62.22l88.4,31.21l-27.48,61.87l-15.95-5.63
	l19.48-43.85l-19.81-6.99l-17.9,40.3l-15.02-5.3L91.24,318.72z"/>
<path class="st0" d="M114.79,408.46l-75.61-16.25l-10.42,38.54l-16.82-3.61l15.54-57.5l92.43,19.86L114.79,408.46z"/>
<path class="st0" d="M38.45,459.74c-5.43-0.24-9.9,1.09-13.39,3.97c-3.49,2.89-5.6,7.5-6.32,13.84c-0.7,6.09-0.1,10.54,1.78,13.36
	c1.88,2.82,4.81,4.41,8.8,4.77c3.51,0.32,6.34-0.37,8.5-2.05c2.15-1.68,3.74-4.4,4.74-8.15l4.83-18.4
	c1.9-7.43,5.36-12.95,10.37-16.55c5.01-3.6,11.4-5.05,19.18-4.35c8.91,0.81,15.68,4.43,20.32,10.88c4.63,6.44,6.29,15.41,4.98,26.91
	c-1.36,11.92-5.18,20.63-11.46,26.12c-6.28,5.49-14,8.08-23.16,7.76l2.16-18.9c4.61-0.09,8.36-1.51,11.26-4.23
	c2.9-2.73,4.66-6.8,5.27-12.21c0.58-5.07-0.04-9.06-1.87-11.96c-1.82-2.9-4.64-4.52-8.43-4.87c-2.94-0.27-5.43,0.32-7.46,1.76
	c-2.03,1.44-3.43,3.83-4.2,7.18l-4.43,17.41c-4.14,16.96-14.37,24.71-30.68,23.23C8.75,513.42-0.1,500.27,2.69,475.84
	c1.47-12.85,5.72-22.01,12.77-27.48c7.04-5.47,15.42-7.93,25.13-7.39L38.45,459.74z"/>
<path class="st0" d="M5.06,613.51l-1.11-19.48l19.07-6.99l-2.15-37.94l-19.77-5.24L0,524.4l96.65,25.51l1.68,29.54L5.06,613.51z
	 M82.49,565.35l-44.62-11.77l1.56,27.5L82.49,565.35z"/>
<path class="st0" d="M116.68,677.4l-16.8,3.11l-10.69-45.8l-22.54,4.18l9.7,41.56l-15.82,2.93l-9.7-41.56l-37.93,7.04l-4.43-18.97
	l93.09-17.26L116.68,677.4z"/>
<path class="st0" d="M81.49,798.29l81.62-16.77l8.55,17.54l-94.32,19.19l-14.71-30.16l65.22-41.13l-78.22,14.48l-14.71-30.16
	l80.13-48.3l8.49,17.42l-69.37,41.9l82.65-14.66l13.05,26.77L81.49,798.29z"/>
<path class="st0" d="M148.79,911.66l-12.69-15.89l11.86-15.04l-24.72-30.94l-19.82,5.07l-12.69-15.89l96.85-24.89l19.25,24.09
	L148.79,911.66z M184.97,833.91l-44.71,11.49l17.92,22.43L184.97,833.91z"/>
<path class="st0" d="M271.86,900.2l-50.22,52.96l33.96,25.6l-11.17,11.78l-50.66-38.19l61.39-64.73L271.86,900.2z"/>
<path class="st0" d="M346.28,1044.22l-19.13-9.46l3.43-18.13l-37.26-18.42l-15.43,12.19l-19.13-9.46l75.36-59.67l29.01,14.34
	L346.28,1044.22z M341.34,960.16l-34.79,27.55l27.01,13.35L341.34,960.16z"/>
<path class="st0" d="M462.5,986.91l20.14,4.88l-24.94,81.8l-34.77-8.43l-11.67-62.8c-0.86-4.96-1.33-9.57-1.42-13.82L389,1056.94
	l-20.14-4.88l24.94-81.8l34.77,8.43l11.68,63.73c0.66,4.3,1.12,8.64,1.37,13.01L462.5,986.91z"/>
<path class="st0" d="M506.01,1073.71c-6.69-4.02-11.61-9.41-14.76-16.18c-3.15-6.77-4.64-14.4-4.46-22.89
	c0.18-8.58,2.14-16.18,5.9-22.79c3.76-6.61,9.51-11.79,17.26-15.53c7.75-3.74,17.39-5.52,28.92-5.33
	c15.15,0.25,26.44,3.19,33.85,8.84c7.41,5.65,11.5,13.24,12.26,22.77l-22.01-0.36c-0.57-5.02-2.87-8.93-6.91-11.71
	c-4.04-2.79-9.92-4.24-17.64-4.37c-9.53-0.15-16.68,2.13-21.45,6.86c-4.77,4.73-7.25,12.1-7.46,22.13
	c-0.2,9.77,1.84,17.11,6.13,22.03c4.28,4.91,11.14,7.45,20.58,7.6c8.77,0.14,15.26-1.49,19.48-4.91c4.22-3.42,6.86-8.09,7.94-14.02
	l-33.88-0.55l0.26-12.62l54.61,0.89l-0.92,45.12l-18.58-0.3l0.33-16.31c-2.21,5.49-6.11,9.89-11.71,13.2
	c-5.6,3.31-13.11,4.89-22.55,4.73C521.09,1079.83,512.7,1077.73,506.01,1073.71z"/>
<path class="st0" d="M591.83,992.2l21.1-4.64l13.52,48.89c1.44,5.2,3.3,9.1,5.59,11.7c2.29,2.6,5.05,4.16,8.29,4.68
	c3.24,0.52,7.26,0.24,12.07-0.82c4.81-1.06,8.52-2.48,11.11-4.28c2.6-1.8,4.23-4.32,4.9-7.58c0.67-3.25,0.29-7.48-1.15-12.68
	l-13.52-48.89l20.96-4.61l14.24,51.49c2.97,10.73,1.75,19.64-3.65,26.73c-5.4,7.1-14.95,12.15-28.65,15.16
	c-13.79,3.03-24.92,2.55-33.39-1.46c-8.47-4-14.2-11.41-17.19-22.22L591.83,992.2z"/>
<path class="st0" d="M805.95,1010.26l-19.51,8.82l-14.91-12.7l-38,17.18l2.67,18.23l-19.51,8.82l-13.15-89.1l29.59-13.37
	L805.95,1010.26z M725.11,966.77l6.08,41.13l27.55-12.45L725.11,966.77z"/>
<path class="st0" d="M831.81,988.31c-8.01,0.81-15.68-0.44-23-3.77c-7.32-3.32-14.01-8.27-20.07-14.83
	c-6.11-6.63-10.15-13.54-12.1-20.75c-1.95-7.2-1.35-14.47,1.83-21.8c3.17-7.33,9.21-14.26,18.12-20.79
	c11.71-8.58,22.43-12.87,32.19-12.87c9.75,0,18.39,3.41,25.9,10.22l-17.01,12.47c-4.09-3.49-8.68-5.13-13.79-4.91
	c-5.1,0.22-10.64,2.52-16.6,6.89c-7.36,5.4-11.14,11.28-11.32,17.63c-0.19,6.35,3.29,13.4,10.44,21.15
	c6.96,7.55,13.86,11.95,20.7,13.21c6.84,1.26,13.9-0.78,21.19-6.13c6.77-4.97,10.52-9.97,11.24-15.01
	c0.72-5.04-0.67-10.12-4.17-15.26l-26.17,19.19l-8.99-9.75l42.19-30.93l32.15,34.85l-14.36,10.53l-11.62-12.6
	c2.32,5.46,2.55,11.06,0.7,16.82c-1.85,5.76-6.42,11.31-13.71,16.65C847.73,984.23,839.83,987.5,831.81,988.31z"/>
<path class="st0" d="M895.34,891.4l17.92,13.09l33.8-36.78l13.38,9.78l-47.58,51.76l-73.54-53.73l47.3-51.47l13.27,9.7l-33.53,36.48
	l16.48,12.04l30.81-33.52l12.5,9.13L895.34,891.4z"/>
<path class="st0" d="M975.88,800.9c5.01,1.89,9.71,2.01,14.1,0.37c4.39-1.64,8.15-5.33,11.27-11.06c3-5.51,4.16-9.87,3.47-13.09
	c-0.68-3.22-2.82-5.61-6.43-7.17c-3.17-1.37-6.1-1.6-8.77-0.68c-2.67,0.92-5.2,2.99-7.59,6.21l-11.62,15.8
	c-4.65,6.4-10.02,10.52-16.11,12.37c-6.09,1.85-12.65,1.25-19.69-1.79c-8.06-3.49-13.02-8.97-14.89-16.43
	c-1.87-7.47,0.03-16.4,5.69-26.8c5.87-10.78,12.81-17.79,20.82-21.03c8.02-3.24,16.26-3.31,24.74-0.2l-9.3,17.09
	c-4.37-1.32-8.43-1.15-12.21,0.53c-3.77,1.68-6.99,4.96-9.65,9.85c-2.5,4.59-3.45,8.52-2.85,11.8c0.6,3.28,2.61,5.66,6.04,7.15
	c2.66,1.15,5.22,1.36,7.68,0.63c2.46-0.73,4.7-2.55,6.71-5.46l10.86-14.99c10.42-14.67,23.01-18.81,37.76-12.43
	c18.52,8.01,21.77,23.07,9.74,45.17c-6.33,11.62-13.85,18.92-22.57,21.9c-8.72,2.98-17.54,2.73-26.45-0.75L975.88,800.9z"/>
<path class="st0" d="M1041.4,725.62c-6.35,5.28-13.59,8.47-21.73,9.58c-8.14,1.11-16.7,0.52-25.68-1.77
	c-8.89-2.26-16.48-5.81-22.76-10.64c-6.28-4.83-10.58-10.98-12.89-18.46c-2.31-7.48-1.9-16.13,1.24-25.93
	c4.37-13.65,10.73-22.9,19.08-27.75c8.35-4.85,19.14-6.13,32.38-3.82l-6.13,19.12c-7.24-1.22-13.17-0.59-17.78,1.9
	c-4.61,2.49-8.09,7.38-10.42,14.65c-2.59,8.09-1.91,14.69,2.05,19.81c3.96,5.12,11.12,9,21.48,11.63
	c10.36,2.64,18.66,2.79,24.91,0.45c6.25-2.34,10.66-7.51,13.23-15.52c2.43-7.6,2.39-13.64-0.14-18.13
	c-2.53-4.49-7.42-7.92-14.69-10.3l6.17-19.24c8.8,2.86,15.61,6.5,20.45,10.91c4.83,4.41,7.71,9.96,8.64,16.65
	c0.93,6.69-0.12,14.77-3.16,24.25C1052.49,712.8,1047.75,720.34,1041.4,725.62z"/>
<path class="st0" d="M1020.55,577.48l-37.82-3.56l2.28-19.27l94.55,8.91l-2.28,19.27l-39.81-3.75l-4.58,38.66l39.81,3.75
	l-2.27,19.14l-94.55-8.91l2.27-19.14l37.82,3.56L1020.55,577.48z"/>
<path class="st0" d="M1074.94,524.39c-4,6.91-9.64,12.1-16.94,15.58c-7.3,3.48-15.56,5.48-24.79,6c-9.13,0.52-17.56-0.54-25.3-3.17
	c-7.73-2.63-14.12-7.14-19.16-13.54c-5.04-6.4-7.93-14.77-8.66-25.12c-0.73-10.26,0.95-18.85,5.04-25.77
	c4.09-6.92,9.79-12.11,17.09-15.59c7.3-3.48,15.51-5.47,24.65-5.99c9.23-0.52,17.68,0.53,25.37,3.16
	c7.69,2.63,14.02,7.13,19.01,13.49c4.99,6.36,7.85,14.71,8.59,25.06C1080.56,508.85,1078.93,517.48,1074.94,524.39z M1055.49,518.84
	c4.97-3.98,7.14-10.43,6.5-19.34c-0.63-8.91-3.7-15.05-9.19-18.45c-5.49-3.39-13.66-4.78-24.51-4.17
	c-10.94,0.62-18.92,2.9-23.94,6.85c-5.02,3.95-7.21,10.41-6.57,19.4c0.64,8.99,3.73,15.16,9.27,18.51
	c5.54,3.35,13.78,4.71,24.72,4.1C1042.61,525.13,1050.52,522.83,1055.49,518.84z"/>
<path class="st0" d="M1061.79,418.05c-2.55,7.44-7.07,13.45-13.55,18.03c-6.48,4.58-14.21,7.87-23.19,9.85
	c-8.88,1.96-17.39,2.26-25.52,0.91c-8.13-1.36-15.32-4.78-21.56-10.28c-6.24-5.49-10.76-13.27-13.55-23.34
	c-2.77-9.98-2.84-18.7-0.19-26.16c2.64-7.46,7.21-13.48,13.69-18.06c6.49-4.58,14.17-7.86,23.05-9.82
	c8.98-1.98,17.51-2.29,25.59-0.92c8.09,1.37,15.22,4.78,21.4,10.25c6.18,5.46,10.67,13.23,13.47,23.29
	C1064.22,401.86,1064.34,410.61,1061.79,418.05z M1041.55,415.69c4.09-4.71,4.94-11.4,2.53-20.06c-2.41-8.66-6.65-14.23-12.74-16.69
	c-6.08-2.47-14.4-2.53-24.95-0.2c-10.64,2.35-18.03,5.87-22.18,10.54c-4.15,4.68-5.01,11.39-2.58,20.14
	c2.43,8.74,6.7,14.32,12.82,16.74c6.12,2.41,14.5,2.45,25.14,0.1C1030.13,423.92,1037.46,420.4,1041.55,415.69z"/>
<path class="st0" d="M942.42,345.57l71.62-27.05l-17.35-36.5l15.93-6.02l25.88,54.46l-87.55,33.07L942.42,345.57z"/>
<g>
	<path class="st0" d="M425.04,67.87c1.28,4.71,3.96,8.16,8.05,10.33c4.09,2.17,9.65,2.67,16.68,1.5c6.75-1.12,11.37-2.88,13.87-5.29
		c2.5-2.4,3.39-5.36,2.65-8.87c-0.65-3.09-2.18-5.32-4.6-6.69c-2.42-1.37-5.79-1.95-10.11-1.75l-21.16,1.06
		c-8.53,0.47-15.44-0.93-20.73-4.2c-5.29-3.27-8.65-8.33-10.08-15.18c-1.64-7.85,0.35-14.67,5.98-20.44
		c5.63-5.78,14.81-9.73,27.56-11.85c13.21-2.2,23.66-1.38,31.34,2.44c7.68,3.82,12.65,9.7,14.89,17.62l-20.94,3.48
		c-1.4-3.92-3.98-6.73-7.73-8.44c-3.75-1.71-8.63-2.07-14.62-1.07c-5.62,0.94-9.74,2.59-12.34,4.97c-2.61,2.38-3.56,5.24-2.86,8.58
		c0.54,2.59,1.87,4.55,3.99,5.88c2.12,1.33,5.09,1.86,8.91,1.57l19.98-1.12c19.42-1.24,30.64,5.32,33.65,19.69
		c3.78,18.05-7.88,29.32-34.95,33.82c-14.24,2.37-25.3,1.31-33.17-3.17c-7.87-4.48-12.89-10.95-15.04-19.41L425.04,67.87z"/>
	<path class="st0" d="M523.21,0l1.42,69.34l44.46-0.72l0.32,15.42l-66.33,1.08l-1.73-84.76L523.21,0z"/>
	<path class="st0" d="M595.45,58.91c-0.52,4.83,0.76,8.86,3.83,12.11c3.07,3.24,8.14,5.33,15.21,6.27c6.79,0.9,11.8,0.58,15.05-0.96
		c3.24-1.54,5.16-4.08,5.75-7.61c0.52-3.11-0.11-5.66-1.9-7.66c-1.79-2-4.76-3.53-8.92-4.6l-20.39-5.16
		c-8.24-2.04-14.26-5.37-18.06-10c-3.8-4.63-5.13-10.39-3.98-17.28c1.32-7.9,5.7-13.76,13.13-17.59c7.43-3.82,17.56-4.88,30.38-3.18
		c13.29,1.77,22.87,5.57,28.74,11.42c5.86,5.85,8.41,12.85,7.62,20.99l-21.07-2.8c0.11-4.11-1.3-7.52-4.22-10.23
		c-2.92-2.71-7.4-4.46-13.43-5.26c-5.66-0.75-10.15-0.38-13.48,1.11c-3.33,1.49-5.28,3.92-5.84,7.28c-0.44,2.61,0.1,4.85,1.62,6.72
		c1.52,1.88,4.13,3.24,7.85,4.07l19.3,4.75c18.81,4.48,27.01,13.94,24.6,28.4c-3.03,18.16-18.18,25.42-45.42,21.8
		c-14.33-1.9-24.4-6.12-30.19-12.65c-5.8-6.53-8.17-14.1-7.12-22.73L595.45,58.91z"/>
</g>
<g>
	<g>
		<g>
			<path class="st1" d="M569.23,839.15c-17.89,9.93-40.57,9.93-58.46,0l-153.51-85.22c-19.01-10.56-34.81-25.36-45.68-42.82
				c-10.87-17.46-16.62-37.24-16.62-57.21V493.54h53.24V653.9c0,24.3,14.07,46.89,37.21,59.74L540,799.46l154.6-85.82
				c23.3-12.93,37.21-35.27,37.21-59.74V493.54h53.24V653.9c0,19.97-5.75,39.75-16.62,57.21c-10.87,17.46-26.67,32.26-45.68,42.82
				L569.23,839.15z"/>
		</g>
		<g>
			<path class="st1" d="M785.05,279.66v47.47h-6.29c-117.16,0-212.14,84.68-212.14,189.14V733.3h-53.24V516.26
				c0-0.46,0-0.91,0.01-1.37h-0.01v1.37c0-104.29-95.16-189.14-212.14-189.14h-6.29v-47.47h3.7c72.56,0,142.59,25.48,193.12,71.91
				c19.87,18.26,36.05,38.88,48.23,61.14c12.18-22.26,28.36-42.88,48.23-61.14c50.53-46.43,120.56-71.91,193.12-71.91H785.05z"/>
			<path class="st1" d="M513.39,514.89c-0.01,0.46-0.01,0.91-0.01,1.37L513.39,514.89L513.39,514.89z"/>
		</g>
		<g>
			<path class="st1" d="M513.39,514.89c-0.01,0.46-0.01,0.91-0.01,1.37L513.39,514.89L513.39,514.89z"/>
		</g>
		<g>
			<path class="st1" d="M785.05,366.78v47.47h-6.29c-63.1,0-114.43,45.76-114.43,102.02v158.13h-53.24V516.26
				c0-82.42,75.22-149.49,167.66-149.49H785.05z"/>
		</g>
		<g>
			<path class="st1" d="M468.91,516.26v158.13h-53.24V516.26c0-56.25-51.33-102.02-114.43-102.02h-6.29v-47.47h6.29
				C393.69,366.78,468.91,433.84,468.91,516.26z"/>
		</g>
		<path class="st1" d="M545.25,236.66l3.66,8.82c4.74,11.43,14.85,20.44,27.67,24.67l9.89,3.26c4.87,1.61,4.87,7.75,0,9.36
			l-9.89,3.26c-12.82,4.23-22.93,13.24-27.67,24.67l-3.66,8.82c-1.8,4.35-8.7,4.35-10.5,0l-3.66-8.82
			c-4.74-11.43-14.85-20.44-27.67-24.67l-9.89-3.26c-4.87-1.61-4.87-7.75,0-9.36l9.89-3.26c12.82-4.23,22.93-13.24,27.67-24.67
			l3.66-8.82C536.55,232.32,543.45,232.32,545.25,236.66z"/>
	</g>
</g>
<g>
	<g>
		<path class="st2" d="M80.59,312.74c3.22,0,3.22-5,0-5C77.37,307.74,77.37,312.74,80.59,312.74L80.59,312.74z"/>
	</g>
</g>
</svg>
